<svg width="260" height="178" viewBox="0 0 260 178" fill="none" xmlns="http://www.w3.org/2000/svg">
<path d="M79.4165 38.3513C79.4165 38.3513 70.725 24.5182 53.0726 11.8597C36.9842 0.320887 13.6194 -3.32049 5.12145 16.2179C-2.5343 33.7995 11.9925 44.9643 18.555 51.2085C21.1889 53.712 32.6319 65.3346 38.1299 80.2637C43.8213 95.7186 41.3261 120.314 51.7883 137.39C57.0561 145.997 68.9124 155.179 81.2788 158.603C101.144 164.096 107.973 158.603 109.629 159.524C111.285 160.444 119.356 175.604 154.745 175.604C191.363 175.604 204.728 140.289 209.201 119.071C211.032 110.378 237.823 75.385 244.558 68.6751C263.183 50.1491 258.63 33.5903 246.214 28.8319C226.858 21.4053 192.15 52.8147 192.15 52.8147C192.15 52.8147 193.418 41.1189 180.613 36.902C163.643 31.3144 155.527 38.1603 155.527 38.1603C155.527 38.1603 156.607 29.9358 145.849 25.5201C132.107 19.8802 125.084 26.6241 125.084 26.6241C125.084 26.6241 125.594 20.1889 116.976 19.1033C102.19 17.2407 91.2232 24.5522 83.8054 31.7277C79.0634 36.3056 79.4165 38.3513 79.4165 38.3513Z" fill="white"/>
<path d="M13.8831 32.2812C26.2468 43.7206 33.4736 47.4536 46.5096 75.0176C55.9753 95.0347 54.7826 107.978 59.2369 125.283C67.3085 156.64 82.8764 132.204 82.8764 132.204C82.8764 132.204 100.984 107.834 93.0771 76.0221C88.1075 56.0495 72.1526 58.3881 72.1526 58.3881C65.2109 42.036 58.617 28.7287 47.4433 19.0969C19.4281 -5.02197 4.11655 23.2458 13.8831 32.2812Z" fill="#222266"/>
<path d="M87.5564 44.9749C87.5564 44.9749 96.7998 67.3281 97.1608 88.2189C97.7885 124.447 87.7133 133.333 85.2495 143.598C84.0385 148.639 91.213 158.812 102.593 155.085C111.881 152.045 112.532 112.291 115.632 112.139C119.874 111.932 114.701 148.67 115.219 155.302C115.742 161.318 121.645 162.064 124.669 158.964C129.097 156.482 135.591 118.977 136.12 111.498C136.998 99.0645 129.269 95.7344 129.269 95.7344C129.269 95.7344 144.534 89.5582 149.365 61.3428C152.399 43.612 148.949 36.7112 144.534 33.8154C132.544 25.9441 120.805 32.5728 120.805 32.5728C120.805 32.5728 119.702 25.3738 115.148 24.691C109.182 23.7912 99.0649 27.2573 92.1075 34.71C85.1501 42.1628 87.5564 44.9749 87.5564 44.9749Z" fill="#222266"/>
<path d="M155.571 45.1645C154.318 48.288 130.117 155.151 130.739 160.741C131.362 166.332 144.879 171.99 156.675 167.43C168.471 162.871 169.149 148.4 167.064 142.451C162.879 130.525 150.463 132.319 150.463 132.319L152.488 122.926C156.212 125.821 159.848 127.077 163.436 125.28C168.348 122.824 173.603 104.564 169.054 97.1718C166.771 93.4598 160.232 93.5906 160.232 93.5906L164.469 74.9783C164.469 74.9783 181.994 73.3302 185.933 60.7032C189.367 49.7032 182.959 44.4242 177.369 42.355C167.464 38.6849 156.814 42.0411 155.571 45.1645Z" fill="#222266"/>
<path d="M174.299 78.0936C174.37 76.3514 189.373 64.8884 191.374 66.5024C194.69 69.1759 185.374 93.6322 189.925 94.969C194.476 96.3057 200.463 60.9619 203.45 55.4109C205.171 52.2064 233.385 34.6613 238.972 34.711C248.448 34.7921 252.099 48.034 241.454 58.843C228.002 72.5034 201.922 110.071 188.685 136.044C172.955 166.883 170.473 148.601 170.473 141.632C170.473 134.663 174.132 82.3549 174.299 78.0936Z" fill="#222266"/>
<path d="M68.6533 78.2979L75.3518 113.953C75.3518 113.953 85.7957 108.067 83.46 91.1316C81.2786 75.4282 68.6533 78.2979 68.6533 78.2979Z" fill="white"/>
<path d="M118.396 48.5653L116.966 84.5736C116.966 84.5736 137.223 76.5479 137.223 56.9808C137.223 42.7004 118.396 48.5653 118.396 48.5653Z" fill="white"/>
</svg>
