<svg width="1883" height="1883" viewBox="0 0 1883 1883" fill="none" xmlns="http://www.w3.org/2000/svg">
<path d="M648.699 674.941C648.699 674.941 598.389 594.89 496.208 521.637C403.082 454.862 267.835 433.79 218.645 546.857C174.33 648.6 258.418 713.21 296.405 749.345C311.651 763.832 377.888 831.091 409.713 917.484C442.658 1006.92 428.214 1149.25 488.774 1248.07C519.267 1297.88 587.897 1351.01 659.479 1370.83C774.468 1402.62 813.999 1370.83 823.582 1376.16C833.166 1381.48 879.888 1469.21 1084.73 1469.21C1296.69 1469.21 1374.06 1264.84 1399.95 1142.06C1410.55 1091.75 1565.63 889.251 1604.61 850.422C1712.43 743.214 1686.07 647.389 1614.2 619.853C1502.16 576.876 1301.25 758.639 1301.25 758.639C1301.25 758.639 1308.59 690.957 1234.47 666.554C1136.24 634.219 1089.26 673.836 1089.26 673.836C1089.26 673.836 1095.51 626.241 1033.24 600.688C953.696 568.05 913.045 607.076 913.045 607.076C913.045 607.076 915.997 569.836 866.111 563.554C780.524 552.776 717.041 595.087 674.104 636.611C646.655 663.103 648.699 674.941 648.699 674.941Z" fill="#00AFB8"/>
<path d="M269.363 639.805C340.93 706.004 382.762 727.606 458.22 887.117C513.012 1002.95 506.108 1077.86 531.892 1178C578.614 1359.46 668.728 1218.05 668.728 1218.05C668.728 1218.05 773.543 1077.02 727.774 892.93C699.008 777.35 606.654 790.884 606.654 790.884C566.472 696.255 528.304 619.247 463.625 563.509C301.46 423.935 212.83 587.518 269.363 639.805Z" fill="white"/>
<path d="M695.814 713.27C695.814 713.27 749.319 842.626 751.408 963.519C755.042 1173.17 696.722 1224.59 682.46 1283.99C675.45 1313.16 716.979 1372.04 782.854 1350.47C836.616 1332.87 840.386 1102.82 858.327 1101.94C882.884 1100.75 852.937 1313.35 855.935 1351.72C858.963 1386.54 893.134 1390.85 910.636 1372.92C936.268 1358.55 973.861 1141.51 976.919 1098.23C982.007 1026.28 937.268 1007.01 937.268 1007.01C937.268 1007.01 1025.63 971.27 1053.59 807.99C1071.15 705.383 1051.18 665.449 1025.63 648.691C956.223 603.14 888.274 641.5 888.274 641.5C888.274 641.5 881.885 599.84 855.526 595.889C820.992 590.681 762.43 610.739 722.157 653.868C681.885 696.997 695.814 713.27 695.814 713.27Z" fill="white"/>
<path d="M1089.52 714.36C1082.27 732.435 942.174 1350.84 945.777 1383.19C949.381 1415.54 1027.62 1448.29 1095.91 1421.9C1164.19 1395.52 1168.11 1311.77 1156.04 1277.35C1131.82 1208.33 1059.95 1218.72 1059.95 1218.72L1071.67 1164.36C1093.23 1181.12 1114.27 1188.38 1135.04 1177.98C1163.48 1163.77 1193.89 1058.1 1167.56 1015.32C1154.35 993.841 1116.5 994.598 1116.5 994.598L1141.02 886.89C1141.02 886.89 1242.46 877.353 1265.26 804.281C1285.14 740.625 1248.05 710.076 1215.69 698.102C1158.36 676.863 1096.71 696.285 1089.52 714.36Z" fill="white"/>
<path d="M1197.92 904.919C1198.33 894.837 1285.17 828.502 1296.75 837.842C1315.95 853.313 1262.02 994.84 1288.37 1002.58C1314.71 1010.31 1349.37 805.78 1366.66 773.657C1376.62 755.112 1539.93 653.581 1572.27 653.868C1627.13 654.338 1648.26 730.967 1586.64 793.518C1508.78 872.569 1357.81 1089.97 1281.19 1240.27C1190.14 1418.74 1175.77 1312.94 1175.77 1272.61C1175.77 1232.28 1196.95 929.579 1197.92 904.919Z" fill="white"/>
<path d="M586.396 906.1L625.17 1112.43C625.17 1112.43 685.625 1078.37 672.104 980.368C659.478 889.494 586.396 906.1 586.396 906.1Z" fill="#00AFB8"/>
<path d="M874.33 734.04L866.049 942.417C866.049 942.417 983.309 895.973 983.309 782.739C983.309 700.1 874.33 734.04 874.33 734.04Z" fill="#00AFB8"/>
</svg>
