<svg width="61" height="42" viewBox="0 0 61 42" fill="none" xmlns="http://www.w3.org/2000/svg">
<path d="M18.4774 9.04601C18.4774 9.04601 16.4556 5.78181 12.3494 2.79478C8.60703 0.0719374 3.17202 -0.787322 1.19526 3.82317C-0.585587 7.97194 2.79358 10.6065 4.3201 12.08C4.93278 12.6707 7.59462 15.4133 8.87352 18.9361C10.1974 22.583 9.61701 28.3868 12.0507 32.4164C13.276 34.4472 16.034 36.6139 18.9106 37.4219C23.5316 38.7182 25.1202 37.4219 25.5053 37.6392C25.8904 37.8565 27.768 41.4337 35.9999 41.4337C44.5178 41.4337 47.6268 33.1003 48.6672 28.0935C49.0931 26.0423 55.3252 17.7849 56.8919 16.2016C61.2244 11.83 60.1652 7.92255 57.277 6.79972C52.7747 5.04725 44.7009 12.459 44.7009 12.459C44.7009 12.459 44.996 9.6991 42.0172 8.70404C38.0698 7.38552 36.1818 9.00095 36.1818 9.00095C36.1818 9.00095 36.4331 7.06021 33.9307 6.01823C30.7341 4.68737 29.1004 6.27873 29.1004 6.27873C29.1004 6.27873 29.2191 4.76021 27.2143 4.50404C23.7749 4.06453 21.2238 5.78984 19.4984 7.48305C18.3953 8.5633 18.4774 9.04601 18.4774 9.04601Z" fill="#0F172A"/>
<path d="M3.22857 7.61026C6.10457 10.3096 7.78563 11.1905 10.818 17.6948C13.0199 22.4183 12.7424 25.4726 13.7786 29.5559C15.6562 36.9553 19.2775 31.1893 19.2775 31.1893C19.2775 31.1893 23.4896 25.4387 21.6503 17.9319C20.4943 13.2189 16.7829 13.7708 16.7829 13.7708C15.1682 9.91211 13.6344 6.77199 11.0352 4.49915C4.51842 -1.19221 0.956727 5.47816 3.22857 7.61026Z" fill="white"/>
<path d="M20.3653 10.6014C20.3653 10.6014 22.5154 15.8761 22.5994 20.8057C22.7454 29.3545 20.4018 31.4514 19.8286 33.8736C19.5469 35.0632 21.2158 37.4638 23.8631 36.5841C26.0236 35.8669 26.1751 26.486 26.896 26.4502C27.8829 26.4014 26.6794 35.0706 26.7999 36.6354C26.9216 38.0551 28.2948 38.2311 28.9981 37.4996C30.0282 36.9138 31.5389 28.0638 31.6618 26.299C31.8662 23.365 30.0683 22.5792 30.0683 22.5792C30.0683 22.5792 33.6191 21.1218 34.7428 14.4638C35.4486 10.2798 34.6461 8.65143 33.6191 7.96809C30.8301 6.11069 28.0995 7.67488 28.0995 7.67488C28.0995 7.67488 27.8427 5.97612 26.7835 5.81501C25.3957 5.60266 23.0423 6.42056 21.4239 8.1792C19.8055 9.93785 20.3653 10.6014 20.3653 10.6014Z" fill="white"/>
<path d="M36.1892 10.6554C35.8977 11.3924 30.268 36.6091 30.4128 37.9282C30.5576 39.2473 33.702 40.5825 36.4459 39.5066C39.1899 38.4307 39.3475 35.0158 38.8626 33.6121C37.8891 30.7979 35.0009 31.2214 35.0009 31.2214L35.4719 29.0047C36.3382 29.6881 37.184 29.9844 38.0187 29.5603C39.1613 28.9807 40.3836 24.672 39.3256 22.9276C38.7944 22.0517 37.2734 22.0825 37.2734 22.0825L38.259 17.6905C38.259 17.6905 42.3354 17.3017 43.2517 14.322C44.0506 11.7263 42.56 10.4807 41.2598 9.99239C38.9557 9.12634 36.4782 9.91832 36.1892 10.6554Z" fill="white"/>
<path d="M40.5423 18.4202C40.5587 18.0091 44.0486 15.3041 44.5141 15.685C45.2856 16.3159 43.1184 22.0868 44.177 22.4023C45.2357 22.7177 46.6283 14.3776 47.3232 13.0677C47.7235 12.3115 54.2865 8.17141 55.5861 8.18314C57.7904 8.20228 58.6398 11.327 56.1635 13.8776C53.0344 17.101 46.9678 25.9659 43.8886 32.0949C40.2296 39.372 39.6522 35.0578 39.6522 33.4134C39.6522 31.7689 40.5034 19.4257 40.5423 18.4202Z" fill="white"/>
<path d="M15.9705 18.4728L17.5287 26.8864C17.5287 26.8864 19.9581 25.4975 19.4148 21.5012C18.9073 17.7956 15.9705 18.4728 15.9705 18.4728Z" fill="#0F172A"/>
<path d="M27.5488 11.4536L27.216 19.9505C27.216 19.9505 31.9282 18.0567 31.9282 13.4394C31.9282 10.0697 27.5488 11.4536 27.5488 11.4536Z" fill="#0F172A"/>
</svg>
