<svg className="routable-logo" xmlns="http://www.w3.org/2000/svg" fill="none" viewBox="0 0 95 16"><path fill="currentColor" d="M21.68 4.5a7.3 7.3 0 00-5.02 1.87 5.97 5.97 0 00-1.91 4.39c0 3.13 2.32 5.24 5.79 5.24 1.95 0 3.73-.66 5.02-1.87a5.97 5.97 0 001.91-4.38c0-3.14-2.33-5.24-5.79-5.24zm-.85 8.3c-1.52 0-2.2-1.14-2.2-2.26a2.76 2.76 0 012.75-2.82c1.31 0 2.22.94 2.22 2.28a2.8 2.8 0 01-2.77 2.8zm15.49-2.55c-.1.95-.55 2.53-2.27 2.53-.5 0-.89-.13-1.13-.4-.35-.37-.48-1.03-.37-2l.54-4.93c.04-.37-.25-.67-.63-.67h-2.58a.63.63 0 00-.63.55l-.64 5.89c-.16 1.5-.13 2.6.52 3.47.62.83 1.69 1.27 3.1 1.27 1.5 0 2.79-.49 3.6-1.37l-.04.45c-.04.35.25.66.63.66h2.6c.32 0 .59-.23.63-.54l1.06-9.73c.04-.35-.26-.66-.63-.66h-2.6c-.33 0-.6.23-.63.54l-.53 4.94zm6.19 4.82l.86-7.44h-1.19a.62.62 0 01-.63-.67l.18-1.62c.04-.3.3-.54.63-.54h1.32l.47-4.15c.04-.3.3-.54.63-.54h2.7c.38 0 .67.31.63.66l-.45 4.01h1.44c.37 0 .66.32.63.67l-.18 1.62c-.04.3-.3.54-.63.54h-1.58l-.7 7.57a.62.62 0 01-.63.55h-2.87c-.39 0-.68-.3-.63-.66zm16.61-9.12c-.65-.89-1.85-1.42-3.24-1.42a6.19 6.19 0 00-6.07 6.28c0 3 2.05 5.18 4.87 5.18a4.9 4.9 0 003.49-1.38l-.05.44c-.04.36.25.67.63.67h2.6c.32 0 .59-.23.63-.54l1.07-9.72c.04-.36-.25-.66-.63-.66h-2.6c-.33 0-.6.22-.63.54l-.07.61zM58.68 10a2.8 2.8 0 01-2.77 2.8c-1.31 0-2.22-.92-2.22-2.25a2.8 2.8 0 012.77-2.82c1.3 0 2.22.93 2.22 2.27zm13.18-5.47a4.9 4.9 0 00-3.51 1.4l.59-5.26c.04-.36-.25-.66-.63-.66h-2.59c-.33 0-.6.23-.63.54l-1.6 14.51c-.04.36.25.66.63.66h2.6c.33 0 .6-.23.63-.54l.06-.6c.56.73 1.63 1.4 3.27 1.4a6.19 6.19 0 006.07-6.27c-.02-3.01-2.06-5.18-4.89-5.18zm.99 5.46a2.8 2.8 0 01-2.78 2.8c-1.3 0-2.2-.92-2.2-2.25a2.79 2.79 0 012.76-2.82c1.53 0 2.22 1.17 2.22 2.27zm5.23 5.72h2.6c.33 0 .6-.23.63-.54l1.6-14.5c.04-.37-.25-.67-.63-.67h-2.6a.61.61 0 00-.62.54l-1.6 14.5a.6.6 0 00.62.67zM89.54 4.5c-1.97 0-3.66.66-4.87 1.89a6.34 6.34 0 00-1.77 4.48c0 3.21 2.08 5.13 5.58 5.13 3 0 5.44-1.5 6.05-3.75a.16.16 0 00-.16-.2h-3.18c-.21 0-.42.1-.53.25-.35.48-1.07.95-1.94.95-.7 0-1.21-.17-1.55-.5-.3-.3-.45-.71-.47-1.27 0-.13.11-.25.25-.25h7.5c.1 0 .21-.07.23-.18.1-.39.32-1.3.32-1.83 0-2.82-2.2-4.71-5.46-4.71zm-2.3 4.46c-.17 0-.29-.15-.24-.3.3-.99 1.18-1.59 2.32-1.59a2 2 0 011.48.54c.26.28.4.66.42 1.11 0 .14-.12.24-.26.24h-3.72zM11.1 10.77a6.09 6.09 0 003.71-5.55c0-1.42-.52-2.73-1.44-3.68a5.46 5.46 0 00-4-1.54H3.02c-.33 0-.6.23-.64.54l-.5 4.56a10.79 10.79 0 003.82-.58l.23-2.03c.01-.1.15-.16.24-.1l4.1 3c.07.07.07.19-.01.24l-4.75 3c-.1.06-.24-.02-.22-.14l.17-1.55a13.31 13.31 0 01-4.92-.41l-.29-.08c-.16-.05-.3.13-.2.26l1.43 1.83-.68 6.5c-.04.37.25.67.63.67h2.8c.32 0 .59-.23.63-.54l.38-3.5a.25.25 0 01.25-.22h1.1c.1 0 .18.04.23.13l2.15 3.82c.11.19.33.31.55.31h3.3c.48 0 .78-.48.55-.88l-2.27-4.06z"></path></svg>